<svg width="38" height="34" viewBox="0 0 38 34" fill="none" xmlns="http://www.w3.org/2000/svg">
    <path fill-rule="evenodd" clip-rule="evenodd" d="M9.91943 4.00028C8.27823 4.00028 6.7396 4.66828 5.58848 5.88228C3.19887 8.40228 3.19887 12.5043 5.59038 15.0283L18.9992 29.1703L32.41 15.0283C34.8015 12.5043 34.8015 8.40228 32.41 5.88228C30.1077 3.45228 26.0503 3.45628 23.7481 5.88228L20.3441 9.47228C19.6299 10.2263 18.3686 10.2263 17.6543 9.47228L14.2504 5.88028C13.0993 4.66828 11.5625 4.00028 9.91943 4.00028ZM18.9992 34C18.4958 34 18.0114 33.79 17.6562 33.412L2.90059 17.852C-0.966864 13.772 -0.966864 7.134 2.90059 3.054C4.76974 1.086 7.26193 0 9.91938 0C12.5768 0 15.0709 1.086 16.9382 3.054L18.9992 5.228L21.0602 3.056C22.9293 1.086 25.4215 0 28.0809 0C30.7364 0 33.2305 1.086 35.0977 3.054C38.9671 7.134 38.9671 13.772 35.0996 17.852L20.344 33.414C19.9869 33.79 19.5044 34 18.9992 34Z" fill="#97C1BF"/>
</svg>
