<svg width="22" height="20" viewBox="0 0 22 20" fill="none" xmlns="http://www.w3.org/2000/svg">
    <path fill-rule="evenodd" clip-rule="evenodd" d="M5.74281 2.35294C4.79264 2.35294 3.90186 2.74588 3.23542 3.45999C1.85196 4.94235 1.85196 7.35529 3.23652 8.83999L10.9995 17.1588L18.7636 8.83999C20.1482 7.35529 20.1482 4.94235 18.7636 3.45999C17.4308 2.03058 15.0817 2.03294 13.7489 3.45999L11.7781 5.57176C11.3646 6.01529 10.6344 6.01529 10.2209 5.57176L8.2502 3.45882C7.58376 2.74588 6.69408 2.35294 5.74281 2.35294ZM10.9995 20C10.7081 20 10.4277 19.8765 10.222 19.6541L1.67929 10.5012C-0.559764 8.10118 -0.559764 4.19647 1.67929 1.79647C2.76143 0.638823 4.20428 0 5.7428 0C7.28133 0 8.72527 0.638823 9.80631 1.79647L10.9995 3.07529L12.1927 1.79765C13.2749 0.638824 14.7177 0 16.2573 0C17.7948 0 19.2387 0.638823 20.3197 1.79647C22.5599 4.19647 22.5599 8.10118 20.3208 10.5012L11.7781 19.6553C11.5714 19.8765 11.292 20 10.9995 20Z" fill="white"/>
</svg>
