<svg width="165" height="54" viewBox="0 0 165 54" fill="none" xmlns="http://www.w3.org/2000/svg">
    <path d="M26.7542 16.7761V24.4903C26.7542 24.8156 26.9873 25.0945 27.4068 25.2803L27.7796 25.5127C28.0593 25.6521 28.1991 25.7451 28.2457 25.7451C28.3856 25.8845 28.4322 26.0239 28.4322 26.2562C28.4322 26.5815 28.3856 26.8139 28.2457 26.9068C28.1059 26.9998 27.8729 27.0462 27.4534 27.0462H23.5847C23.1186 27.0462 22.7924 26.9998 22.6059 26.9068C22.4195 26.8139 22.3263 26.5815 22.3263 26.2098C22.3263 25.9309 22.5127 25.6986 22.9322 25.5127C23.1652 25.4198 23.3983 25.3268 23.6313 25.2339C23.911 25.048 24.0042 24.8156 24.0042 24.4903V16.6832C24.0042 15.8931 24.0042 15.289 23.9576 14.9172C23.911 14.499 23.7712 14.0808 23.5381 13.6161C22.9788 12.4543 21.9534 11.8966 20.5551 11.8966C19.3432 11.8966 18.2712 12.2219 17.339 12.8725C16.2203 13.6161 15.661 14.592 15.661 15.8002V24.5368C15.661 24.8621 15.7542 25.0945 15.9407 25.2339C16.2669 25.3733 16.5466 25.4662 16.7796 25.6056C17.0127 25.7451 17.1525 25.7915 17.1525 25.838C17.2924 25.9774 17.339 26.1168 17.339 26.3492C17.339 26.7209 17.2924 26.9533 17.1525 27.0462C17.0127 27.1392 16.7796 27.1857 16.3135 27.1857H12.3983C11.9322 27.1857 11.6525 27.1392 11.4661 27.0462C11.2797 26.9533 11.233 26.7209 11.233 26.3492C11.233 26.0704 11.4195 25.838 11.7924 25.6521C12.072 25.5127 12.3517 25.4198 12.6313 25.2803C12.8644 25.0945 12.9576 24.8621 12.9576 24.6297V17.0549C12.9576 15.0102 12.6313 13.6161 11.9322 12.8725C11.3729 12.2219 10.4873 11.8966 9.36864 11.8966C8.24999 11.8966 7.22457 12.2219 6.29237 12.8725C5.17373 13.6161 4.6144 14.592 4.6144 15.8002V24.5368C4.6144 24.8621 4.75423 25.0945 4.98728 25.2339C5.36017 25.3733 5.63983 25.5127 5.82627 25.5592C6.01271 25.6056 6.19915 25.7451 6.29237 25.838C6.38559 25.9309 6.4322 26.0704 6.4322 26.2562C6.4322 26.5815 6.33898 26.8139 6.15254 26.9068C5.9661 26.9998 5.68644 27.0462 5.31356 27.0462H1.67796C1.21186 27.0462 0.838982 26.9998 0.652542 26.9068C0.419491 26.8139 0.326271 26.5815 0.326271 26.2562C0.326271 25.9774 0.512712 25.7451 0.932203 25.5592C1.30508 25.3733 1.53813 25.2803 1.63135 25.2339C1.91102 25.048 2.00424 24.8156 2.00424 24.4903V15.7073V15.1496C2.00424 14.4525 1.95763 13.9878 1.86441 13.709C1.67796 13.2443 1.35169 12.919 0.838982 12.7796C0.699152 12.7331 0.559322 12.7331 0.466101 12.6866C0.13983 12.5937 0 12.4078 0 12.1754C0 11.8966 0.186441 11.6178 0.559322 11.339C0.838983 11.1531 0.978813 11.0137 1.07203 10.9672C1.49152 10.6419 1.77119 10.456 1.91102 10.3631C2.33051 10.0842 2.65678 9.9913 2.88983 9.9913C3.44915 9.9913 3.82203 10.5954 4.10169 11.7572C4.1483 12.036 4.24152 12.4543 4.33474 13.1049C5.0339 12.129 5.91949 11.339 6.8983 10.7813C7.87711 10.2237 8.94915 9.94482 10.161 9.94482C11.3263 9.94482 12.3051 10.2237 13.1441 10.7348C13.983 11.246 14.6822 12.036 15.3347 13.1049C15.9873 12.1754 16.8729 11.3854 17.8983 10.8278C18.9237 10.2701 20.0424 9.9913 21.2076 9.9913C22.9788 9.9913 24.4237 10.5954 25.4957 11.8501C26.0085 12.4078 26.3347 13.1513 26.5212 14.0343C26.661 14.8708 26.7542 15.8002 26.7542 16.7761Z" fill="white"/>
    <path d="M44.6994 9.94482C47.1231 9.94482 49.2206 10.7813 50.9918 12.4543C52.7164 14.1272 53.6019 16.2184 53.6019 18.635C53.6019 21.1909 52.7164 23.2821 50.9918 25.0015C49.2672 26.721 47.0765 27.5574 44.5596 27.5574C42.1359 27.5574 40.0384 26.6745 38.3604 24.955C36.6359 23.2356 35.7969 21.1444 35.7969 18.7279C35.7969 16.3114 36.6825 14.2202 38.4537 12.5007C40.1782 10.8278 42.2757 9.94482 44.6994 9.94482ZM44.5596 25.838C46.4706 25.838 48.0553 25.048 49.2206 23.5144C49.7333 22.8638 50.1062 22.1203 50.3392 21.2838C50.5723 20.4473 50.7121 19.5179 50.7121 18.5885C50.7121 16.6367 50.1994 15.0102 49.174 13.7555C48.0553 12.3613 46.5172 11.7107 44.6062 11.7107C42.6952 11.7107 41.157 12.4543 40.0384 13.9414C39.0596 15.289 38.5469 16.9155 38.5469 18.9138C38.5469 20.8656 39.013 22.4456 40.0384 23.7468C41.157 25.1409 42.6486 25.838 44.5596 25.838Z" fill="white"/>
    <path d="M77.5129 16.9156V24.5369C77.5129 24.8157 77.6061 25.0016 77.7459 25.141C78.212 25.3734 78.4917 25.4663 78.5849 25.5128C78.8646 25.6522 79.0044 25.7451 79.051 25.7451C79.1908 25.8846 79.2374 26.024 79.2374 26.2563C79.2374 26.4422 79.1908 26.5816 79.0976 26.721C78.9112 26.9534 78.6781 27.0928 78.3518 27.0928H74.39C74.1103 27.0928 73.9239 27.0928 73.7841 27.0928C73.551 27.0928 73.3646 27.0463 73.2247 26.9534C73.0849 26.8604 73.0383 26.6281 73.0383 26.2563C73.0383 25.931 73.2247 25.6987 73.6442 25.5593C73.8773 25.4663 74.1103 25.3734 74.39 25.234C74.6696 25.0945 74.8095 24.8622 74.8095 24.4904V15.2426C74.8095 14.2667 74.5298 13.4767 73.9705 12.9191C73.2713 12.222 72.1527 11.8967 70.6612 11.8967C69.9154 11.8967 69.1696 12.0361 68.5171 12.2685C67.8646 12.5473 67.2586 12.8726 66.7459 13.3373C66.2332 13.802 65.9069 14.2667 65.7671 14.7779C65.6273 15.2891 65.5341 15.9397 65.5341 16.7297V24.4439C65.5341 24.7692 65.6739 25.0481 65.9535 25.1875C66.0468 25.234 66.2332 25.2804 66.5129 25.4198C66.8391 25.5593 67.0256 25.6522 67.1654 25.7451C67.3052 25.8381 67.3519 25.9775 67.3519 26.2099C67.3519 26.4887 67.2586 26.6746 67.1188 26.814C66.9324 26.9534 66.7459 27.0463 66.4197 27.0463H62.4578C62.1781 27.0463 61.9917 27.0463 61.8519 27.0463C61.5722 27.0463 61.3858 26.9999 61.2459 26.9069C61.1061 26.814 61.0129 26.5816 61.0129 26.2099C61.0129 25.8846 61.2459 25.6522 61.6654 25.5128C61.8985 25.4198 62.0849 25.3734 62.3646 25.2804C62.6908 25.0945 62.8773 24.8157 62.8773 24.4904V15.2891V14.9173C62.8773 14.3132 62.8307 13.895 62.7375 13.6626C62.551 13.2908 62.2714 13.012 61.8052 12.8726C61.3858 12.7332 61.1061 12.6402 61.0129 12.5473C60.9197 12.4544 60.873 12.3614 60.873 12.1755C60.873 11.9432 60.9663 11.7108 61.1527 11.4785C61.1993 11.432 61.3858 11.2926 61.712 11.0137C62.0383 10.7814 62.318 10.549 62.6442 10.3167C63.0637 10.0379 63.39 9.89844 63.623 9.89844C64.1358 9.89844 64.5086 10.3167 64.7883 11.1067C64.8815 11.2926 64.9747 11.9432 65.1612 13.012C66.0002 11.9432 66.9324 11.1532 67.9578 10.642C68.9832 10.1308 70.1485 9.89844 71.5468 9.89844C72.479 9.89844 73.3646 10.0379 74.1569 10.3167C74.9493 10.5955 75.6485 11.0602 76.2078 11.6643C76.7671 12.2685 77.0934 13.012 77.2798 13.895C77.4196 14.8244 77.5129 15.8003 77.5129 16.9156Z" fill="white"/>
    <path d="M88.1398 22.678V3.85712C88.1398 3.43887 88.0466 3.16005 87.8135 2.92769C87.6271 2.7418 87.3008 2.55592 86.8813 2.41651C86.4618 2.27709 86.2754 2.09121 86.2754 1.85885C86.2754 1.67297 86.3686 1.53355 86.555 1.39414C86.7415 1.25472 86.8813 1.16178 86.9745 1.11531C87.4873 0.836483 88 0.604127 88.4661 0.418241C89.1652 0.139414 89.6779 0 90.0042 0C90.3771 0 90.5635 0.139414 90.6567 0.37177C90.75 0.604127 90.75 0.975897 90.75 1.44061V22.678C90.75 23.0033 90.75 23.3286 90.75 23.7003C90.75 24.0256 90.7966 24.3509 90.8898 24.6762C90.983 25.0015 91.1695 25.1874 91.4025 25.3268L91.7754 25.5592C92.055 25.6986 92.1949 25.7916 92.2415 25.7916C92.3813 25.931 92.4279 26.0704 92.4279 26.3027C92.4279 26.628 92.3813 26.8604 92.2415 26.9533C92.1017 27.0463 91.8686 27.0927 91.4491 27.0927H87.3008C86.9279 27.0927 86.6949 27.0463 86.555 26.9533C86.4152 26.8604 86.322 26.628 86.322 26.3027C86.322 26.0239 86.5084 25.7451 86.9279 25.5592L87.5805 25.2339C87.7669 25.0945 87.8601 24.9086 87.9534 24.5833C88.0466 24.258 88.0466 23.9792 88.0466 23.6539C88.1398 23.1427 88.1398 22.8174 88.1398 22.678Z" fill="white"/>
    <path d="M108.834 9.94482C111.258 9.94482 113.355 10.7813 115.127 12.4543C116.851 14.1272 117.737 16.2184 117.737 18.635C117.737 21.1909 116.851 23.2821 115.127 25.0015C113.402 26.721 111.211 27.5574 108.694 27.5574C106.271 27.5574 104.173 26.6745 102.495 24.955C100.771 23.2356 99.9316 21.1444 99.9316 18.7279C99.9316 16.3114 100.817 14.2202 102.588 12.5007C104.313 10.8278 106.41 9.94482 108.834 9.94482ZM108.694 25.838C110.605 25.838 112.19 25.048 113.355 23.5144C113.868 22.8638 114.241 22.1203 114.474 21.2838C114.707 20.4473 114.847 19.5179 114.847 18.5885C114.847 16.6367 114.334 15.0102 113.309 13.7555C112.19 12.3613 110.652 11.7107 108.741 11.7107C106.83 11.7107 105.292 12.4543 104.173 13.9414C103.194 15.289 102.682 16.9155 102.682 18.9138C102.682 20.8656 103.148 22.4456 104.173 23.7468C105.292 25.1409 106.783 25.838 108.694 25.838Z" fill="white"/>
    <path d="M136.569 13.6161C136.009 12.919 135.543 12.4543 135.17 12.1754C134.658 11.8501 134.005 11.6643 133.213 11.6643C132.467 11.6643 131.721 11.8966 131.069 12.3149C130.416 12.7331 129.857 13.2908 129.437 13.9878C129.018 14.6849 128.692 15.5214 128.459 16.4508C128.226 17.3802 128.132 18.3097 128.132 19.2391C128.132 20.9585 128.645 22.3991 129.624 23.6538C130.603 24.9086 131.954 25.5127 133.632 25.5127C134.471 25.5127 135.264 25.3268 136.103 25.0015C136.895 24.6762 137.548 24.2115 138.107 23.5609C138.34 23.2821 138.48 23.0962 138.573 23.0497C138.806 22.8638 138.992 22.7709 139.272 22.7709C139.692 22.7709 139.878 23.0032 139.878 23.4215C139.878 23.7468 139.738 24.0721 139.412 24.4903C139.132 24.9086 138.806 25.2339 138.48 25.5592C136.942 26.9533 135.217 27.6039 133.213 27.6039C130.789 27.6039 128.831 26.8139 127.433 25.2339C126.035 23.6538 125.289 21.6091 125.289 19.1461C125.289 16.5902 126.128 14.4525 127.759 12.6402C129.391 10.8278 131.488 9.94482 134.005 9.94482C135.497 9.94482 136.802 10.3166 137.967 11.1066C138.387 11.3854 138.713 11.7107 138.992 12.0825C139.272 12.4543 139.412 12.8725 139.412 13.2908C139.412 13.6161 139.272 13.9414 139.039 14.2202C138.806 14.499 138.526 14.6849 138.2 14.6849C137.827 14.6849 137.501 14.592 137.314 14.4061C136.942 14.0808 136.709 13.8019 136.569 13.6161Z" fill="white"/>
    <path d="M156.098 9.94482C158.522 9.94482 160.619 10.7813 162.39 12.4543C164.115 14.1272 165 16.2184 165 18.635C165 21.1909 164.115 23.2821 162.39 25.0015C160.666 26.721 158.475 27.5574 155.958 27.5574C153.534 27.5574 151.437 26.6745 149.759 24.955C148.034 23.2356 147.195 21.1444 147.195 18.7279C147.195 16.3114 148.081 14.2202 149.852 12.5007C151.577 10.8278 153.674 9.94482 156.098 9.94482ZM155.958 25.838C157.869 25.838 159.454 25.048 160.619 23.5144C161.132 22.8638 161.505 22.1203 161.738 21.2838C161.971 20.4473 162.111 19.5179 162.111 18.5885C162.111 16.6367 161.598 15.0102 160.572 13.7555C159.454 12.3613 157.916 11.7107 156.005 11.7107C154.094 11.7107 152.555 12.4543 151.437 13.9414C150.458 15.289 149.945 16.9155 149.945 18.9138C149.945 20.8656 150.411 22.4456 151.437 23.7468C152.555 25.1409 154.047 25.838 155.958 25.838Z" fill="white"/>
    <path d="M29.5984 51.63C29.7849 51.8624 29.8781 52.1412 29.8781 52.4665C29.8781 52.9312 29.6916 53.303 29.3654 53.5353C29.0391 53.7677 28.5264 53.9071 27.8272 53.9071H25.2637V48.6094H27.6408C28.2467 48.6094 28.7128 48.7488 29.0391 48.9811C29.3654 49.2135 29.5518 49.5388 29.5518 50.0035C29.5518 50.2823 29.5052 50.5147 29.3654 50.7471C29.2255 50.9329 29.0391 51.1188 28.8527 51.2118C29.1789 51.2582 29.412 51.3977 29.5984 51.63ZM26.0094 49.2135V50.9329H27.5942C27.9671 50.9329 28.2933 50.84 28.4798 50.7006C28.7128 50.5612 28.806 50.3288 28.806 50.05C28.806 49.7712 28.7128 49.5388 28.4798 49.3994C28.2467 49.26 27.9671 49.167 27.5942 49.167H26.0094V49.2135ZM28.7594 53.0706C28.9925 52.9312 29.0857 52.6988 29.0857 52.42C29.0857 51.8159 28.6662 51.5371 27.7806 51.5371H26.0094V53.303H27.7806C28.2001 53.303 28.5264 53.21 28.7594 53.0706Z" fill="white"/>
    <path d="M36.8228 53.2565V53.9071H32.9551V48.6094H36.7296V49.26H33.7473V50.8865H36.3568V51.5371H33.7007V53.2565H36.8228Z" fill="white"/>
    <path d="M43.3473 52.5594H40.504L39.8981 53.9071H39.1523L41.5761 48.6094H42.3218L44.7456 53.9071H43.9532L43.3473 52.5594ZM43.0676 51.9553L41.9023 49.3529L40.7371 51.9553H43.0676Z" fill="white"/>
    <path d="M47.8696 53.3494C47.4501 52.9312 47.2637 52.3735 47.2637 51.5835V48.6094H48.0094V51.5835C48.0094 52.7453 48.5221 53.303 49.501 53.303C49.9671 53.303 50.3399 53.1636 50.6196 52.8847C50.8993 52.6059 50.9925 52.1877 50.9925 51.5835V48.6094H51.7382V51.63C51.7382 52.3735 51.5518 52.9777 51.1323 53.3959C50.7128 53.8142 50.2001 54 49.4543 54C48.8018 53.9536 48.2891 53.7677 47.8696 53.3494Z" fill="white"/>
    <path d="M56.2123 49.26H54.3945V48.6094H58.8225V49.26H57.0047V53.9071H56.2589V49.26H56.2123Z" fill="white"/>
    <path d="M63.5307 52.0947V53.9536H62.785V52.0947L60.6875 48.6094H61.5265L63.2511 51.3977L64.9756 48.6094H65.7214L63.5307 52.0947Z" fill="white"/>
    <path d="M73.2264 53.628C72.8069 53.3956 72.4807 53.0703 72.201 52.6521C71.9679 52.2338 71.8281 51.7691 71.8281 51.2579C71.8281 50.7467 71.9679 50.282 72.201 49.8638C72.4341 49.4455 72.7603 49.1202 73.2264 48.8879C73.6459 48.6555 74.1586 48.5161 74.6713 48.5161C75.0908 48.5161 75.4637 48.6091 75.8366 48.7485C76.1629 48.8879 76.4891 49.0738 76.7222 49.3526L76.2095 49.8173C75.79 49.3991 75.3239 49.1667 74.718 49.1667C74.2985 49.1667 73.9722 49.2597 73.6459 49.4455C73.3196 49.6314 73.0866 49.8638 72.9002 50.1891C72.7137 50.5144 72.6205 50.8397 72.6205 51.2114C72.6205 51.5832 72.7137 51.955 72.9002 52.2338C73.0866 52.5591 73.3196 52.7915 73.6459 52.9774C73.9722 53.1632 74.3451 53.2562 74.718 53.2562C75.3239 53.2562 75.79 53.0238 76.2095 52.6056L76.7222 53.0703C76.4891 53.3491 76.1629 53.535 75.8366 53.6744C75.5103 53.8138 75.0908 53.9068 74.6713 53.9068C74.112 53.9533 73.6459 53.8603 73.2264 53.628Z" fill="white"/>
    <path d="M80.5428 53.628C80.1233 53.3956 79.7505 53.0703 79.5174 52.6521C79.2844 52.2338 79.1445 51.7691 79.1445 51.2579C79.1445 50.7467 79.2844 50.282 79.5174 49.8638C79.7505 49.4455 80.1233 49.1202 80.5428 48.8879C80.9623 48.6555 81.475 48.5161 81.9877 48.5161C82.5005 48.5161 83.0132 48.6555 83.4327 48.8879C83.8522 49.1202 84.225 49.4455 84.4581 49.8638C84.6911 50.282 84.831 50.7467 84.831 51.2579C84.831 51.7691 84.6911 52.2338 84.4581 52.6521C84.225 53.0703 83.8988 53.3956 83.4327 53.628C83.0132 53.8603 82.5005 53.9997 81.9877 53.9997C81.4284 53.9532 80.9623 53.8603 80.5428 53.628ZM83.0598 53.0238C83.3861 52.8379 83.6191 52.6056 83.8055 52.2803C83.992 51.955 84.0852 51.6297 84.0852 51.2579C84.0852 50.8861 83.992 50.5144 83.8055 50.2355C83.6191 49.9102 83.3861 49.6779 83.0598 49.492C82.7335 49.3061 82.4072 49.2132 81.9877 49.2132C81.6149 49.2132 81.242 49.3061 80.9157 49.492C80.5894 49.6779 80.3564 49.9102 80.17 50.2355C79.9835 50.5608 79.8903 50.8861 79.8903 51.2579C79.8903 51.6297 79.9835 52.0015 80.17 52.2803C80.3564 52.6056 80.5894 52.8379 80.9157 53.0238C81.242 53.2097 81.5683 53.3027 81.9877 53.3027C82.3606 53.3027 82.7335 53.2097 83.0598 53.0238Z" fill="white"/>
    <path d="M95.2723 48.6094L93.5011 53.9071H92.7087L91.2638 49.6782L89.8189 53.9071H88.9799L87.1621 48.6094H87.9545L89.3994 52.9312L90.8909 48.6094H91.5901L93.0816 52.9777L94.5731 48.6094H95.2723Z" fill="white"/>
    <path d="M98.9999 53.628C98.5804 53.3956 98.2075 53.0703 97.9744 52.6521C97.7414 52.2338 97.6016 51.7691 97.6016 51.2579C97.6016 50.7467 97.7414 50.282 97.9744 49.8638C98.2075 49.4455 98.5804 49.1202 98.9999 48.8879C99.4194 48.6555 99.9321 48.5161 100.445 48.5161C100.957 48.5161 101.47 48.6555 101.89 48.8879C102.309 49.1202 102.682 49.4455 102.915 49.8638C103.148 50.282 103.288 50.7467 103.288 51.2579C103.288 51.7691 103.148 52.2338 102.915 52.6521C102.682 53.0703 102.356 53.3956 101.89 53.628C101.424 53.8603 100.957 53.9997 100.445 53.9997C99.9321 53.9532 99.4194 53.8603 98.9999 53.628ZM101.517 53.0238C101.843 52.8379 102.076 52.6056 102.263 52.2803C102.449 51.955 102.542 51.6297 102.542 51.2579C102.542 50.8861 102.449 50.5144 102.263 50.2355C102.076 49.9102 101.843 49.6779 101.517 49.492C101.191 49.3061 100.864 49.2132 100.445 49.2132C100.025 49.2132 99.699 49.3061 99.3727 49.492C99.0465 49.6779 98.8134 49.9102 98.627 50.2355C98.4406 50.5608 98.3473 50.8861 98.3473 51.2579C98.3473 51.6297 98.4406 52.0015 98.627 52.2803C98.8134 52.5591 99.0465 52.8379 99.3727 53.0238C99.699 53.2097 100.025 53.3027 100.445 53.3027C100.864 53.3027 101.191 53.2097 101.517 53.0238Z" fill="white"/>
    <path d="M109.908 53.9071L108.742 52.2806C108.603 52.2806 108.509 52.2806 108.416 52.2806H107.111V53.9071H106.365V48.6094H108.463C109.162 48.6094 109.675 48.7953 110.094 49.1206C110.514 49.4459 110.7 49.9106 110.7 50.4682C110.7 50.8865 110.607 51.2118 110.374 51.5371C110.187 51.8159 109.861 52.0482 109.488 52.1877L110.747 53.9536H109.908V53.9071ZM109.535 51.3512C109.768 51.1653 109.908 50.84 109.908 50.4682C109.908 50.0965 109.768 49.7712 109.535 49.5853C109.302 49.3994 108.929 49.26 108.416 49.26H107.111V51.6765H108.416C108.882 51.63 109.255 51.5371 109.535 51.3512Z" fill="white"/>
    <path d="M115.547 51.5371L114.568 52.513V53.9071H113.822V48.6094H114.568V51.5835L117.458 48.6094H118.343L116.06 51.0259L118.483 53.9536H117.598L115.547 51.5371Z" fill="white"/>
    <path d="M121.188 48.6094H121.933V53.9071H121.188V48.6094Z" fill="white"/>
    <path d="M130.044 48.6094V53.9071H129.438L126.222 49.957V53.9071H125.477V48.6094H126.082L129.299 52.5594V48.6094H130.044Z" fill="white"/>
    <path d="M137.267 51.2114H138.013V53.3027C137.734 53.535 137.454 53.6744 137.081 53.8138C136.708 53.9532 136.382 53.9997 135.962 53.9997C135.403 53.9997 134.937 53.8603 134.517 53.628C134.098 53.3956 133.725 53.0703 133.492 52.6521C133.259 52.2338 133.119 51.7691 133.119 51.2579C133.119 50.7467 133.259 50.282 133.492 49.8638C133.725 49.4455 134.098 49.1202 134.517 48.8879C134.937 48.6555 135.45 48.5161 135.962 48.5161C136.382 48.5161 136.755 48.6091 137.128 48.7485C137.454 48.8879 137.78 49.0738 138.013 49.3526L137.547 49.8173C137.128 49.3991 136.615 49.2132 136.009 49.2132C135.589 49.2132 135.217 49.3061 134.937 49.492C134.657 49.6779 134.378 49.9102 134.191 50.2355C134.005 50.5608 133.912 50.8861 133.912 51.3044C133.912 51.6762 134.005 52.0479 134.191 52.3268C134.378 52.6056 134.611 52.8844 134.937 53.0703C135.263 53.2562 135.636 53.3491 136.009 53.3491C136.475 53.3491 136.895 53.2562 137.267 53.0238V51.2114Z" fill="white"/>
</svg>
