<svg width="184" height="60" viewBox="0 0 184 60" fill="none" xmlns="http://www.w3.org/2000/svg">
    <path d="M29.835 18.6406V27.212C29.835 27.5735 30.0949 27.8833 30.5627 28.0898L30.9785 28.348C31.2904 28.5029 31.4463 28.6061 31.4983 28.6061C31.6542 28.7611 31.7062 28.916 31.7062 29.1741C31.7062 29.5356 31.6542 29.7937 31.4983 29.897C31.3424 30.0003 31.0825 30.0519 30.6147 30.0519H26.3006C25.7808 30.0519 25.4169 30.0003 25.209 29.897C25.0011 29.7937 24.8972 29.5356 24.8972 29.1225C24.8972 28.8127 25.1051 28.5545 25.5729 28.348C25.8328 28.2447 26.0926 28.1414 26.3525 28.0382C26.6644 27.8316 26.7684 27.5735 26.7684 27.212V18.5373C26.7684 17.6596 26.7684 16.9883 26.7164 16.5752C26.6644 16.1105 26.5085 15.6458 26.2486 15.1294C25.6248 13.8386 24.4813 13.219 22.922 13.219C21.5706 13.219 20.3751 13.5804 19.3356 14.3033C18.0881 15.1294 17.4644 16.2138 17.4644 17.5563V27.2636C17.4644 27.6251 17.5684 27.8833 17.7763 28.0382C18.1401 28.1931 18.452 28.2963 18.7119 28.4512C18.9717 28.6061 19.1277 28.6578 19.1277 28.7094C19.2836 28.8643 19.3356 29.0192 19.3356 29.2774C19.3356 29.6905 19.2836 29.9487 19.1277 30.0519C18.9717 30.1552 18.7119 30.2068 18.1921 30.2068H13.826C13.3062 30.2068 12.9943 30.1552 12.7864 30.0519C12.5785 29.9487 12.5265 29.6905 12.5265 29.2774C12.5265 28.9676 12.7345 28.7094 13.1503 28.5029C13.4621 28.348 13.774 28.2447 14.0859 28.0898C14.3458 27.8833 14.4497 27.6251 14.4497 27.3669V18.9504C14.4497 16.6785 14.0859 15.1294 13.3062 14.3033C12.6825 13.5804 11.6949 13.219 10.4475 13.219C9.2 13.219 8.05649 13.5804 7.01695 14.3033C5.76949 15.1294 5.14576 16.2138 5.14576 17.5563V27.2636C5.14576 27.6251 5.30169 27.8833 5.56158 28.0382C5.9774 28.1931 6.28926 28.348 6.49717 28.3996C6.70508 28.4512 6.91299 28.6061 7.01695 28.7094C7.1209 28.8127 7.17288 28.9676 7.17288 29.1741C7.17288 29.5356 7.06892 29.7937 6.86101 29.897C6.6531 30.0003 6.34124 30.0519 5.92542 30.0519H1.87119C1.35141 30.0519 0.935593 30.0003 0.727683 29.897C0.467796 29.7937 0.363842 29.5356 0.363842 29.1741C0.363842 28.8643 0.571751 28.6061 1.03955 28.3996C1.45537 28.1931 1.71525 28.0898 1.81921 28.0382C2.13107 27.8316 2.23503 27.5735 2.23503 27.212V17.453V16.8334C2.23503 16.0589 2.18305 15.5425 2.0791 15.2327C1.87119 14.7164 1.50734 14.3549 0.935593 14.2C0.779661 14.1484 0.623729 14.1484 0.519774 14.0968C0.155932 13.9935 0 13.7869 0 13.5288C0 13.219 0.20791 12.9091 0.623729 12.5993C0.935593 12.3928 1.09152 12.2379 1.19548 12.1863C1.66328 11.8248 1.97514 11.6183 2.13107 11.515C2.59887 11.2052 2.96271 11.1019 3.2226 11.1019C3.84633 11.1019 4.26215 11.7732 4.57401 13.0641C4.62599 13.3739 4.72994 13.8386 4.8339 14.5615C5.61356 13.4771 6.60113 12.5993 7.69265 11.9797C8.78418 11.3601 9.97966 11.0503 11.3311 11.0503C12.6305 11.0503 13.722 11.3601 14.6576 11.9281C15.5932 12.4961 16.3729 13.3739 17.1006 14.5615C17.8282 13.5288 18.8158 12.651 19.9593 12.0314C21.1028 11.4117 22.3503 11.1019 23.6497 11.1019C25.6248 11.1019 27.2361 11.7732 28.4316 13.1673C29.0034 13.7869 29.3672 14.6131 29.5751 15.5942C29.7311 16.5236 29.835 17.5563 29.835 18.6406Z" fill="#383838"/>
    <path d="M49.8466 11.0503C52.5494 11.0503 54.8884 11.9797 56.8636 13.8386C58.7867 15.6974 59.7743 18.021 59.7743 20.706C59.7743 23.5459 58.7867 25.8695 56.8636 27.78C54.9404 29.6905 52.4975 30.6199 49.6907 30.6199C46.9879 30.6199 44.6489 29.6388 42.7777 27.7284C40.8545 25.8179 39.9189 23.4943 39.9189 20.8093C39.9189 18.1243 40.9065 15.8007 42.8817 13.8902C44.8048 12.0314 47.1438 11.0503 49.8466 11.0503ZM49.6907 28.7094C51.8218 28.7094 53.589 27.8316 54.8884 26.1277C55.4602 25.4048 55.876 24.5786 56.1359 23.6492C56.3958 22.7198 56.5517 21.6871 56.5517 20.6544C56.5517 18.4857 55.98 16.6785 54.8365 15.2844C53.589 13.7353 51.8737 13.0124 49.7427 13.0124C47.6116 13.0124 45.8963 13.8386 44.6489 15.4909C43.5574 16.9883 42.9856 18.7955 42.9856 21.0158C42.9856 23.1845 43.5054 24.9401 44.6489 26.3858C45.8963 27.9349 47.5596 28.7094 49.6907 28.7094Z" fill="#383838"/>
    <path d="M86.4387 18.7954V27.2635C86.4387 27.5733 86.5427 27.7799 86.6986 27.9348C87.2184 28.1929 87.5303 28.2962 87.6342 28.3479C87.9461 28.5028 88.102 28.606 88.154 28.606C88.3099 28.7609 88.3619 28.9158 88.3619 29.174C88.3619 29.3806 88.3099 29.5355 88.206 29.6904C87.9981 29.9485 87.7382 30.1034 87.3743 30.1034H82.9563C82.6444 30.1034 82.4365 30.1034 82.2805 30.1034C82.0207 30.1034 81.8127 30.0518 81.6568 29.9485C81.5009 29.8453 81.4489 29.5871 81.4489 29.174C81.4489 28.8126 81.6568 28.5544 82.1246 28.3995C82.3845 28.2962 82.6444 28.1929 82.9563 28.038C83.2681 27.8831 83.424 27.625 83.424 27.2119V16.9365C83.424 15.8522 83.1122 14.9744 82.4885 14.3548C81.7088 13.5803 80.4613 13.2188 78.7981 13.2188C77.9664 13.2188 77.1348 13.3737 76.4071 13.6319C75.6794 13.9417 75.0037 14.3032 74.432 14.8195C73.8602 15.3359 73.4964 15.8522 73.3404 16.4202C73.1845 16.9882 73.0806 17.7111 73.0806 18.5889V27.1603C73.0806 27.5217 73.2365 27.8315 73.5483 27.9864C73.6523 28.038 73.8602 28.0897 74.1721 28.2446C74.5359 28.3995 74.7438 28.5028 74.8998 28.606C75.0557 28.7093 75.1077 28.8642 75.1077 29.1224C75.1077 29.4322 75.0037 29.6387 74.8478 29.7936C74.6399 29.9485 74.432 30.0518 74.0681 30.0518H69.65C69.3382 30.0518 69.1303 30.0518 68.9743 30.0518C68.6625 30.0518 68.4546 30.0002 68.2986 29.8969C68.1427 29.7936 68.0387 29.5355 68.0387 29.1224C68.0387 28.7609 68.2986 28.5028 68.7664 28.3479C69.0263 28.2446 69.2342 28.1929 69.5461 28.0897C69.9099 27.8831 70.1178 27.5733 70.1178 27.2119V16.9882V16.5751C70.1178 15.9038 70.0659 15.4391 69.9619 15.181C69.754 14.7679 69.4421 14.4581 68.9224 14.3032C68.4546 14.1483 68.1427 14.045 68.0387 13.9417C67.9348 13.8385 67.8828 13.7352 67.8828 13.5286C67.8828 13.2705 67.9868 13.0123 68.1947 12.7541C68.2466 12.7025 68.4546 12.5476 68.8184 12.2378C69.1822 11.9796 69.4941 11.7214 69.8579 11.4632C70.3257 11.1534 70.6896 10.9985 70.9495 10.9985C71.5212 10.9985 71.937 11.4632 72.2489 12.341C72.3529 12.5476 72.4568 13.2705 72.6647 14.4581C73.6003 13.2705 74.6399 12.3927 75.7834 11.8247C76.9269 11.2567 78.2263 10.9985 79.7856 10.9985C80.8252 10.9985 81.8127 11.1534 82.6964 11.4632C83.58 11.7731 84.3596 12.2894 84.9834 12.9607C85.6071 13.6319 85.9709 14.4581 86.1788 15.4391C86.3348 16.4718 86.4387 17.5562 86.4387 18.7954Z" fill="#383838"/>
    <path d="M98.2891 25.1978V4.2857C98.2891 3.82098 98.1851 3.51117 97.9252 3.253C97.7173 3.04646 97.3535 2.83992 96.8857 2.68501C96.4179 2.53011 96.21 2.32357 96.21 2.0654C96.21 1.85886 96.3139 1.70395 96.5218 1.54905C96.7297 1.39414 96.8857 1.29087 96.9896 1.23924C97.5614 0.929428 98.1331 0.671253 98.6529 0.464714C99.4326 0.154905 100.004 0 100.368 0C100.784 0 100.992 0.154905 101.096 0.413079C101.2 0.671253 101.2 1.08433 101.2 1.60068V25.1978C101.2 25.5593 101.2 25.9207 101.2 26.3338C101.2 26.6952 101.252 27.0567 101.356 27.4181C101.46 27.7796 101.668 27.9861 101.927 28.141L102.343 28.3992C102.655 28.5541 102.811 28.6574 102.863 28.6574C103.019 28.8123 103.071 28.9672 103.071 29.2253C103.071 29.5868 103.019 29.845 102.863 29.9482C102.707 30.0515 102.447 30.1031 101.979 30.1031H97.3535C96.9376 30.1031 96.6778 30.0515 96.5218 29.9482C96.3659 29.845 96.2619 29.5868 96.2619 29.2253C96.2619 28.9155 96.4698 28.6057 96.9376 28.3992L97.6653 28.0377C97.8732 27.8828 97.9772 27.6763 98.0811 27.3148C98.1851 26.9534 98.1851 26.6436 98.1851 26.2822C98.289 25.7142 98.2891 25.3527 98.2891 25.1978Z" fill="#383838"/>
    <path d="M121.367 11.0503C124.07 11.0503 126.409 11.9797 128.384 13.8386C130.307 15.6974 131.295 18.021 131.295 20.706C131.295 23.5459 130.307 25.8695 128.384 27.78C126.461 29.6905 124.018 30.6199 121.211 30.6199C118.508 30.6199 116.169 29.6388 114.298 27.7284C112.375 25.8179 111.439 23.4943 111.439 20.8093C111.439 18.1243 112.427 15.8007 114.402 13.8902C116.325 12.0314 118.664 11.0503 121.367 11.0503ZM121.211 28.7094C123.342 28.7094 125.11 27.8316 126.409 26.1277C126.981 25.4048 127.397 24.5786 127.656 23.6492C127.916 22.7198 128.072 21.6871 128.072 20.6544C128.072 18.4857 127.5 16.6785 126.357 15.2844C125.11 13.7353 123.394 13.0124 121.263 13.0124C119.132 13.0124 117.417 13.8386 116.169 15.4909C115.078 16.9883 114.506 18.7955 114.506 21.0158C114.506 23.1845 115.026 24.9401 116.169 26.3858C117.417 27.9349 119.08 28.7094 121.211 28.7094Z" fill="#383838"/>
    <path d="M152.293 15.1294C151.67 14.3549 151.15 13.8386 150.734 13.5288C150.162 13.1673 149.435 12.9608 148.551 12.9608C147.719 12.9608 146.888 13.219 146.16 13.6837C145.432 14.1484 144.809 14.768 144.341 15.5425C143.873 16.3171 143.509 17.2465 143.249 18.2792C142.989 19.3119 142.885 20.3446 142.885 21.3773C142.885 23.2878 143.457 24.8884 144.549 26.2826C145.64 27.6767 147.148 28.348 149.019 28.348C149.954 28.348 150.838 28.1414 151.774 27.78C152.657 27.4185 153.385 26.9022 154.009 26.1793C154.269 25.8695 154.424 25.663 154.528 25.6113C154.788 25.4048 154.996 25.3015 155.308 25.3015C155.776 25.3015 155.984 25.5597 155.984 26.0244C155.984 26.3858 155.828 26.7473 155.464 27.212C155.152 27.6767 154.788 28.0382 154.424 28.3996C152.709 29.9487 150.786 30.6715 148.551 30.6715C145.848 30.6715 143.665 29.7938 142.106 28.0382C140.546 26.2826 139.715 24.0106 139.715 21.274C139.715 18.4341 140.65 16.0589 142.47 14.0451C144.289 12.0314 146.628 11.0503 149.435 11.0503C151.098 11.0503 152.553 11.4634 153.853 12.3412C154.32 12.651 154.684 13.0124 154.996 13.4255C155.308 13.8386 155.464 14.3033 155.464 14.768C155.464 15.1294 155.308 15.4909 155.048 15.8007C154.788 16.1105 154.476 16.3171 154.113 16.3171C153.697 16.3171 153.333 16.2138 153.125 16.0072C152.709 15.6458 152.449 15.336 152.293 15.1294Z" fill="#383838"/>
    <path d="M174.072 11.0503C176.775 11.0503 179.114 11.9797 181.089 13.8386C183.012 15.6974 184 18.021 184 20.706C184 23.5459 183.012 25.8695 181.089 27.78C179.166 29.6905 176.723 30.6199 173.916 30.6199C171.213 30.6199 168.874 29.6388 167.003 27.7284C165.08 25.8179 164.145 23.4943 164.145 20.8093C164.145 18.1243 165.132 15.8007 167.107 13.8902C169.03 12.0314 171.369 11.0503 174.072 11.0503ZM173.916 28.7094C176.047 28.7094 177.815 27.8316 179.114 26.1277C179.686 25.4048 180.102 24.5786 180.361 23.6492C180.621 22.7198 180.777 21.6871 180.777 20.6544C180.777 18.4857 180.206 16.6785 179.062 15.2844C177.815 13.7353 176.099 13.0124 173.968 13.0124C171.837 13.0124 170.122 13.8386 168.874 15.4909C167.783 16.9883 167.211 18.7955 167.211 21.0158C167.211 23.1845 167.731 24.9401 168.874 26.3858C170.122 27.9349 171.785 28.7094 173.916 28.7094Z" fill="#383838"/>
    <path d="M33.0058 57.3636C33.2137 57.6218 33.3176 57.9316 33.3176 58.293C33.3176 58.8094 33.1097 59.2224 32.7459 59.4806C32.382 59.7388 31.8103 59.8937 31.0306 59.8937H28.1719V54.0073H30.8227C31.4984 54.0073 32.0182 54.1622 32.382 54.4204C32.7459 54.6786 32.9538 55.04 32.9538 55.5564C32.9538 55.8662 32.9018 56.1244 32.7459 56.3825C32.59 56.5891 32.382 56.7956 32.1741 56.8989C32.538 56.9505 32.7979 57.1054 33.0058 57.3636ZM29.0035 54.6786V56.5891H30.7707C31.1866 56.5891 31.5504 56.4858 31.7583 56.3309C32.0182 56.176 32.1222 55.9178 32.1222 55.608C32.1222 55.2982 32.0182 55.04 31.7583 54.8851C31.4984 54.7302 31.1866 54.6269 30.7707 54.6269H29.0035V54.6786ZM32.0702 58.9643C32.3301 58.8094 32.434 58.5512 32.434 58.2414C32.434 57.5701 31.9662 57.2603 30.9787 57.2603H29.0035V59.2224H30.9787C31.4464 59.2224 31.8103 59.1192 32.0702 58.9643Z" fill="#383838"/>
    <path d="M41.0622 59.1737V59.8966H36.748V54.0103H40.9582V54.7331H37.6317V56.5404H40.5424V57.2633H37.5797V59.1737H41.0622Z" fill="#383838"/>
    <path d="M48.3391 58.3992H45.1685L44.4928 59.8966H43.6611L46.364 54.0103H47.1956L49.8984 59.8966H49.0148L48.3391 58.3992ZM48.0272 57.728L46.7278 54.8364L45.4284 57.728H48.0272Z" fill="#383838"/>
    <path d="M53.3808 59.277C52.913 58.8123 52.7051 58.1927 52.7051 57.3149V54.0103H53.5367V57.3149C53.5367 58.6058 54.1085 59.2254 55.2 59.2254C55.7198 59.2254 56.1356 59.0705 56.4474 58.7607C56.7593 58.4509 56.8633 57.9861 56.8633 57.3149V54.0103H57.6949V57.3665C57.6949 58.1927 57.487 58.8639 57.0192 59.3286C56.5514 59.7934 55.9797 59.9999 55.148 59.9999C54.4203 59.9483 53.8486 59.7417 53.3808 59.277Z" fill="#383838"/>
    <path d="M62.6843 54.7331H60.6572V54.0103H65.5951V54.7331H63.568V59.8966H62.7363V54.7331H62.6843Z" fill="#383838"/>
    <path d="M70.8454 57.8829V59.9483H70.0138V57.8829L67.6748 54.0103H68.6104L70.5336 57.1083L72.4567 54.0103H73.2884L70.8454 57.8829Z" fill="#383838"/>
    <path d="M81.657 59.5861C81.1892 59.3279 80.8253 58.9665 80.5135 58.5018C80.2536 58.037 80.0977 57.5207 80.0977 56.9527C80.0977 56.3847 80.2536 55.8684 80.5135 55.4037C80.7734 54.9389 81.1372 54.5775 81.657 54.3193C82.1248 54.0612 82.6965 53.9062 83.2683 53.9062C83.7361 53.9062 84.1519 54.0095 84.5677 54.1644C84.9315 54.3193 85.2954 54.5259 85.5553 54.8357L84.9835 55.352C84.5157 54.8873 83.996 54.6291 83.3203 54.6291C82.8525 54.6291 82.4886 54.7324 82.1248 54.9389C81.7609 55.1455 81.501 55.4037 81.2931 55.7651C81.0852 56.1265 80.9813 56.488 80.9813 56.9011C80.9813 57.3142 81.0852 57.7272 81.2931 58.037C81.501 58.3985 81.7609 58.6567 82.1248 58.8632C82.4886 59.0697 82.9044 59.173 83.3203 59.173C83.996 59.173 84.5157 58.9148 84.9835 58.4501L85.5553 58.9665C85.2954 59.2763 84.9315 59.4828 84.5677 59.6377C84.2039 59.7926 83.7361 59.8959 83.2683 59.8959C82.6445 59.9475 82.1248 59.8443 81.657 59.5861Z" fill="#383838"/>
    <path d="M89.8171 59.5861C89.3493 59.3279 88.9335 58.9665 88.6736 58.5018C88.4137 58.037 88.2578 57.5207 88.2578 56.9527C88.2578 56.3847 88.4137 55.8684 88.6736 55.4037C88.9335 54.9389 89.3493 54.5775 89.8171 54.3193C90.2849 54.0612 90.8567 53.9062 91.4284 53.9062C92.0002 53.9062 92.5719 54.0612 93.0397 54.3193C93.5075 54.5775 93.9233 54.9389 94.1832 55.4037C94.4431 55.8684 94.5991 56.3847 94.5991 56.9527C94.5991 57.5207 94.4431 58.037 94.1832 58.5018C93.9233 58.9665 93.5595 59.3279 93.0397 59.5861C92.5719 59.8443 92.0002 59.9992 91.4284 59.9992C90.8047 59.9475 90.2849 59.8443 89.8171 59.5861ZM92.6239 58.9148C92.9878 58.7083 93.2476 58.4501 93.4555 58.0887C93.6635 57.7272 93.7674 57.3658 93.7674 56.9527C93.7674 56.5396 93.6635 56.1265 93.4555 55.8167C93.2476 55.4553 92.9878 55.1971 92.6239 54.9906C92.2601 54.784 91.8962 54.6808 91.4284 54.6808C91.0126 54.6808 90.5968 54.784 90.233 54.9906C89.8691 55.1971 89.6092 55.4553 89.4013 55.8167C89.1934 56.1782 89.0894 56.5396 89.0894 56.9527C89.0894 57.3658 89.1934 57.7789 89.4013 58.0887C89.6092 58.4501 89.8691 58.7083 90.233 58.9148C90.5968 59.1214 90.9606 59.2246 91.4284 59.2246C91.8442 59.2246 92.2601 59.1214 92.6239 58.9148Z" fill="#383838"/>
    <path d="M106.241 54.0103L104.266 59.8966H103.383L101.771 55.1979L100.16 59.8966H99.2244L97.1973 54.0103H98.0809L99.6922 58.8123L101.355 54.0103H102.135L103.798 58.8639L105.462 54.0103H106.241Z" fill="#383838"/>
    <path d="M110.4 59.5861C109.932 59.3279 109.517 58.9665 109.257 58.5018C108.997 58.037 108.841 57.5207 108.841 56.9527C108.841 56.3847 108.997 55.8684 109.257 55.4037C109.517 54.9389 109.932 54.5775 110.4 54.3193C110.868 54.0612 111.44 53.9062 112.011 53.9062C112.583 53.9062 113.155 54.0612 113.623 54.3193C114.091 54.5775 114.506 54.9389 114.766 55.4037C115.026 55.8684 115.182 56.3847 115.182 56.9527C115.182 57.5207 115.026 58.037 114.766 58.5018C114.506 58.9665 114.143 59.3279 113.623 59.5861C113.103 59.8443 112.583 59.9992 112.011 59.9992C111.44 59.9475 110.868 59.8443 110.4 59.5861ZM113.207 58.9148C113.571 58.7083 113.831 58.4501 114.039 58.0887C114.246 57.7272 114.35 57.3658 114.35 56.9527C114.35 56.5396 114.246 56.1265 114.039 55.8167C113.831 55.4553 113.571 55.1971 113.207 54.9906C112.843 54.784 112.479 54.6808 112.011 54.6808C111.544 54.6808 111.18 54.784 110.816 54.9906C110.452 55.1971 110.192 55.4553 109.984 55.8167C109.776 56.1782 109.672 56.5396 109.672 56.9527C109.672 57.3658 109.776 57.7789 109.984 58.0887C110.192 58.3985 110.452 58.7083 110.816 58.9148C111.18 59.1214 111.544 59.2246 112.011 59.2246C112.479 59.2246 112.843 59.1214 113.207 58.9148Z" fill="#383838"/>
    <path d="M122.563 59.8966L121.263 58.0894C121.107 58.0894 121.003 58.0894 120.899 58.0894H119.444V59.8966H118.612V54.0103H120.951C121.731 54.0103 122.303 54.2168 122.77 54.5782C123.238 54.9397 123.446 55.456 123.446 56.0756C123.446 56.5404 123.342 56.9018 123.082 57.2633C122.874 57.5731 122.511 57.8312 122.095 57.9861L123.498 59.9483H122.563V59.8966ZM122.147 57.0567C122.407 56.8502 122.563 56.4887 122.563 56.0756C122.563 55.6626 122.407 55.3011 122.147 55.0946C121.887 54.888 121.471 54.7331 120.899 54.7331H119.444V57.4182H120.899C121.419 57.3665 121.835 57.2633 122.147 57.0567Z" fill="#383838"/>
    <path d="M128.852 57.2633L127.76 58.3476V59.8966H126.929V54.0103H127.76V57.3149L130.983 54.0103H131.971L129.424 56.6953L132.126 59.9483H131.139L128.852 57.2633Z" fill="#383838"/>
    <path d="M135.141 54.0103H135.972V59.8966H135.141V54.0103Z" fill="#383838"/>
    <path d="M145.018 54.0103V59.8966H144.342L140.755 55.5077V59.8966H139.924V54.0103H140.6L144.186 58.3992V54.0103H145.018Z" fill="#383838"/>
    <path d="M153.073 56.9011H153.905V59.2246C153.593 59.4828 153.281 59.6377 152.865 59.7926C152.45 59.9475 152.086 59.9992 151.618 59.9992C150.994 59.9992 150.474 59.8443 150.007 59.5861C149.539 59.3279 149.123 58.9665 148.863 58.5018C148.603 58.037 148.447 57.5207 148.447 56.9527C148.447 56.3847 148.603 55.8684 148.863 55.4037C149.123 54.9389 149.539 54.5775 150.007 54.3193C150.474 54.0612 151.046 53.9062 151.618 53.9062C152.086 53.9062 152.502 54.0095 152.917 54.1644C153.281 54.3193 153.645 54.5259 153.905 54.8357L153.385 55.352C152.917 54.8873 152.346 54.6808 151.67 54.6808C151.202 54.6808 150.786 54.784 150.474 54.9906C150.163 55.1971 149.851 55.4553 149.643 55.8167C149.435 56.1782 149.331 56.5396 149.331 57.0043C149.331 57.4174 149.435 57.8305 149.643 58.1403C149.851 58.4501 150.111 58.7599 150.474 58.9665C150.838 59.173 151.254 59.2763 151.67 59.2763C152.19 59.2763 152.657 59.173 153.073 58.9148V56.9011Z" fill="#383838"/>
</svg>
