<svg width="36" height="36" viewBox="0 0 36 36" fill="none" xmlns="http://www.w3.org/2000/svg">
    <path fill-rule="evenodd" clip-rule="evenodd" d="M28.0121 35.9994C27.7258 35.9994 27.4396 35.9291 27.1786 35.7848L18 30.7253L8.82138 35.7848C8.21296 36.119 7.47852 36.0601 6.9295 35.6347C6.37507 35.2093 6.09966 34.4895 6.21487 33.7773L7.96454 23.0886L0.548209 15.5203C0.0531867 15.017 -0.123221 14.2611 0.0873882 13.5717C0.296198 12.8823 0.861423 12.3809 1.54005 12.2764L11.8023 10.7039L16.3871 0.968593C16.9956 -0.322864 19.0044 -0.322864 19.6129 0.968593L24.1977 10.7039L34.4599 12.2764C35.1386 12.3809 35.7038 12.8823 35.9126 13.5717C36.1232 14.2611 35.9468 15.017 35.4518 15.5203L28.0355 23.0886L29.7851 33.7773C29.9003 34.4895 29.6249 35.2093 29.0705 35.6347C28.7591 35.8778 28.3865 35.9994 28.0121 35.9994Z" fill="#FFC12F"/>
</svg>
