<svg width="14" height="14" viewBox="0 0 14 14" fill="none" xmlns="http://www.w3.org/2000/svg">
    <path fill-rule="evenodd" clip-rule="evenodd" d="M10.8936 13.9998C10.7823 13.9998 10.671 13.9724 10.5695 13.9163L7 11.9487L3.43054 13.9163C3.19393 14.0463 2.90831 14.0234 2.6948 13.8579C2.4792 13.6925 2.37209 13.4126 2.41689 13.1356L3.09732 8.9789L0.213192 6.03566C0.0206837 5.83994 -0.0479194 5.54599 0.0339843 5.27788C0.115188 5.00978 0.334998 4.81479 0.59891 4.77417L4.58979 4.16263L6.37277 0.376675C6.60938 -0.125558 7.39062 -0.125558 7.62723 0.376675L9.41021 4.16263L13.4011 4.77417C13.665 4.81479 13.8848 5.00978 13.966 5.27788C14.0479 5.54599 13.9793 5.83994 13.7868 6.03566L10.9027 8.9789L11.5831 13.1356C11.6279 13.4126 11.5208 13.6925 11.3052 13.8579C11.1841 13.9525 11.0392 13.9998 10.8936 13.9998Z" fill="#FFC12F"/>
</svg>
