<svg width="22" height="22" viewBox="0 0 22 22" fill="none" xmlns="http://www.w3.org/2000/svg">
    <path fill-rule="evenodd" clip-rule="evenodd" d="M17.1185 21.9996C16.9436 21.9996 16.7687 21.9567 16.6092 21.8685L11 18.7766L5.39085 21.8685C5.01903 22.0727 4.57021 22.0368 4.23469 21.7768C3.89588 21.5168 3.72757 21.0769 3.79797 20.6417L4.86722 14.1097L0.335017 9.48461C0.032503 9.17705 -0.0753019 8.71512 0.0534039 8.29381C0.18101 7.87251 0.526425 7.5661 0.941144 7.50227L7.21253 6.54127L10.0144 0.591918C10.3862 -0.197306 11.6138 -0.197306 11.9856 0.591918L14.7875 6.54127L21.0589 7.50227C21.4736 7.5661 21.819 7.87251 21.9466 8.29381C22.0753 8.71512 21.9675 9.17705 21.665 9.48461L17.1328 14.1097L18.202 20.6417C18.2724 21.0769 18.1041 21.5168 17.7653 21.7768C17.575 21.9253 17.3473 21.9996 17.1185 21.9996Z" fill="#FFC12F"/>
</svg>
